<svg width="840" height="826" viewBox="0 0 840 826" fill="none" xmlns="http://www.w3.org/2000/svg">
<path d="M682.074 284.702C710.657 347.42 702.887 413.821 668.183 473.847C633.402 534.006 571.585 587.603 492.722 623.543C335.138 695.359 162.451 648.431 105.226 522.863C76.7232 460.319 86.4397 393.02 123.296 331.913C160.214 270.705 224.206 216.116 303.078 180.172C460.379 108.486 624.742 158.898 682.074 284.702Z" stroke="white" stroke-width="15"/>
<path d="M665.849 209.659C714.942 264.181 729.374 332.959 715.293 403.035C701.181 473.265 658.378 544.782 593.019 603.632C462.556 721.101 277.393 724.972 179.117 615.825C130.148 561.44 117.342 491.193 133.172 419.425C149.03 347.53 193.635 274.387 259.002 215.53C389.236 98.2666 567.394 100.313 665.849 209.659Z" stroke="white" stroke-width="15"/>
</svg>
