<svg width="35" height="29" viewBox="0 0 35 29" fill="none" xmlns="http://www.w3.org/2000/svg">
<path d="M8 3C8 1.34315 9.34315 0 11 0H32C33.6569 0 35 1.34315 35 3V17C35 18.6569 33.6569 20 32 20H27.5V8.5C27.5 6.84315 26.1569 5.5 24.5 5.5H8V3Z" fill="white"/>
<path d="M0 9C0 7.34315 1.34315 6 3 6H24C25.6569 6 27 7.34315 27 9V23.913C27 25.0656 26.0656 26 24.913 26H24.331C23.8291 26 23.3778 26.3056 23.1914 26.7716V26.7716C22.8641 27.5898 21.8068 27.8068 21.1837 27.1837L20.5363 26.5363C20.1929 26.1929 19.7272 26 19.2415 26H3C1.34315 26 0 24.6569 0 23V9Z" fill="white"/>
<circle cx="9.5" cy="16.5" r="1.5" fill="#37474F"/>
<circle cx="13.5" cy="16.5" r="1.5" fill="#37474F"/>
<circle cx="17.5" cy="16.5" r="1.5" fill="#37474F"/>
</svg>
