<svg width="19" height="19" viewBox="0 0 19 19" fill="none" xmlns="http://www.w3.org/2000/svg">
<path d="M18.191 1C18.191 0.608476 17.8816 0.291084 17.5 0.291084L11.2813 0.291084C10.8997 0.291084 10.5903 0.608476 10.5903 1C10.5903 1.39152 10.8997 1.70892 11.2813 1.70892L16.809 1.70892L16.809 7.38024C16.809 7.77177 17.1184 8.08916 17.5 8.08916C17.8816 8.08916 18.191 7.77177 18.191 7.38024L18.191 1ZM6.15065 11.6416C5.88081 11.9184 5.88081 12.3673 6.15065 12.6441C6.42049 12.921 6.85799 12.921 7.12783 12.6441L6.15065 11.6416ZM17.0114 0.498721L6.15065 11.6416L7.12783 12.6441L17.9886 1.50128L17.0114 0.498721Z" fill="white"/>
<path d="M9.35442 2.28564L3.99999 2.28564C2.34313 2.28564 0.999988 3.62879 0.999988 5.28564V14.4999C0.999988 16.1568 2.34313 17.4999 3.99999 17.4999H12.8291C14.486 17.4999 15.8291 16.1568 15.8291 14.4999V9.14279" stroke="white" stroke-width="1.4" stroke-linecap="round"/>
</svg>
