<svg width="64" height="64" viewBox="0 0 64 64" fill="none" xmlns="http://www.w3.org/2000/svg">
<circle cx="32" cy="32" r="30.5" stroke="white" stroke-width="3"/>
<path d="M12.3643 21.529L31.6859 13L54.4179 22.8997L47.6893 22.8998L31.7089 16.0461L15.7286 22.8997V44.1463H41.4309V44.1463C42.3799 44.0679 43.3165 43.8795 44.222 43.5849L45.723 43.0964C46.6647 42.7899 47.5528 42.3385 48.3554 41.7583L49.0017 41.291C49.5931 40.8634 50.0941 40.323 50.4758 39.701V39.701C50.6507 39.416 50.7994 39.1156 50.92 38.8037L51.0926 38.3576C51.365 37.6534 51.5047 36.9049 51.5047 36.1499V36.1499V36.1499C51.5047 35.395 51.3641 34.6467 51.0902 33.9432L51.0639 33.8757C50.7673 33.1142 50.3291 32.4158 49.7724 31.8175L49.0565 31.0481L48.9049 30.9246C47.8899 30.0974 46.7609 29.4208 45.5529 28.9155V28.9155V28.9155C44.3569 28.5123 43.1031 28.3066 41.841 28.3066H28.8708L24.6213 25.4886L42.6433 25.5597C43.5523 25.5633 44.4587 25.6565 45.3494 25.838L45.5735 25.8836C46.7675 26.1269 47.9186 26.5462 48.9893 27.1278V27.1278C49.5938 27.4562 50.1696 27.8347 50.7108 28.2594L51.5469 28.9155L51.8321 29.1642C52.2239 29.5057 52.5862 29.8796 52.9153 30.2818L52.947 30.3206C53.7099 31.2531 54.2783 32.3289 54.6188 33.4846V33.4846L54.7041 33.8159C54.9006 34.5783 55 35.3626 55 36.1499V36.1499V36.1499C55 36.9078 54.8946 37.6619 54.6867 38.3907L54.6241 38.6103C54.326 39.6554 53.8563 40.6437 53.2341 41.5347L53.2068 41.5738C52.6853 42.3206 52.0626 42.9913 51.3565 43.5667V43.5667C50.9453 43.9018 50.5076 44.203 50.0478 44.4675L49.2975 44.8991L48.157 45.422L47.4526 45.7091C46.7826 45.9822 46.0935 46.2055 45.3907 46.3774L44.1223 46.6876C43.7722 46.7732 43.4127 46.8147 43.0523 46.8113V46.8113L50.4658 50.9996L45.3058 51L38.0826 46.8165L12.3643 46.8878V21.529V22.8997H9L12.3643 21.529Z" fill="white"/>
</svg>
